# xmcd
#
# Track frame offsets: 
#        150
#        26142
#        41580
#        61450
#        74665
#        94710
#        109902
#        129402
#        154432
#        175245
#
# Disc length: 2414 seconds
#
# Revision: 0
# Processed by: cddbd v1.5.2PL0 Copyright (c) Steve Scherf et al.
# Submitted via: ExactAudioCopy v1.0b1
#
DISCID=90096c0a
DTITLE=Various Artist - Winston Blues Revival
DYEAR=1900
DGENRE=Blues
TTITLE0=Jig Roo
TTITLE1=Prison Blues
TTITLE2=Miz Dr. Feelgood
TTITLE3=My Creole Bell
TTITLE4=Savannah Mama
TTITLE5=My Baby Left Me
TTITLE6=Came So Far
TTITLE7=Shirtnin' Bread
TTITLE8=Metal Bottoms
TTITLE9=Peter Rumpkin
EXTD=
EXTT0=
EXTT1=
EXTT2=
EXTT3=
EXTT4=
EXTT5=
EXTT6=
EXTT7=
EXTT8=
EXTT9=
PLAYORDER=
